<svg width="1200" height="1500" viewBox="0 0 1200 1500" fill="none" xmlns="http://www.w3.org/2000/svg">
  <rect width="1200" height="1500" rx="56" fill="#0F0B25"/>
  <rect x="34" y="34" width="1132" height="1432" rx="42" stroke="rgba(255,255,255,0.14)" stroke-width="2"/>
  <circle cx="905" cy="318" r="220" fill="url(#paint0_radial)"/>
  <circle cx="338" cy="632" r="314" fill="url(#paint1_radial)"/>
  <path d="M398 1164C398 974.275 533.275 839 723 839H817C1006.73 839 1142 974.275 1142 1164V1326C1142 1419.84 1067.84 1494 974 1494H566C472.161 1494 398 1419.84 398 1326V1164Z" fill="#11112B"/>
  <rect x="468" y="628" width="364" height="342" rx="112" fill="#F0C59D"/>
  <path d="M554 782C554 694.676 624.676 624 712 624H720C807.324 624 878 694.676 878 782V1007H554V782Z" fill="#161635"/>
  <rect x="564" y="700" width="164" height="154" rx="54" fill="#12122E"/>
  <path d="M540 584C540 457.6 640.6 357 767 357C893.4 357 994 457.6 994 584V636H540V584Z" fill="#1A1A3B"/>
  <path d="M614 575C614 505.176 669.176 450 739 450C808.824 450 864 505.176 864 575V610H614V575Z" fill="#F0C59D"/>
  <circle cx="709" cy="546" r="44" fill="#11112B"/>
  <circle cx="709" cy="546" r="21" fill="#F5F2FF"/>
  <rect x="640" y="760" width="118" height="22" rx="11" fill="#2A2551"/>
  <rect x="640" y="804" width="88" height="18" rx="9" fill="#2A2551"/>
  <path d="M520 1100C520 1036.98 568.978 988 632 988H812C875.022 988 924 1036.98 924 1100V1292H520V1100Z" fill="#1E1B3D"/>
  <rect x="316" y="250" width="202" height="220" rx="38" fill="#17153A" stroke="rgba(255,255,255,0.15)" stroke-width="2"/>
  <path d="M356 358H452" stroke="#8E7AFE" stroke-width="10" stroke-linecap="round"/>
  <path d="M356 392H436" stroke="#8E7AFE" stroke-width="10" stroke-linecap="round"/>
  <path d="M356 426H412" stroke="#8E7AFE" stroke-width="10" stroke-linecap="round"/>
  <defs>
    <radialGradient id="paint0_radial" cx="0" cy="0" r="1" gradientUnits="userSpaceOnUse" gradientTransform="translate(905 318) rotate(90) scale(220)">
      <stop stop-color="#8B7BFF" stop-opacity="0.85"/>
      <stop offset="1" stop-color="#8B7BFF" stop-opacity="0"/>
    </radialGradient>
    <radialGradient id="paint1_radial" cx="0" cy="0" r="1" gradientUnits="userSpaceOnUse" gradientTransform="translate(338 632) rotate(90) scale(314)">
      <stop stop-color="#FF5A7A" stop-opacity="0.65"/>
      <stop offset="1" stop-color="#FF5A7A" stop-opacity="0"/>
    </radialGradient>
  </defs>
</svg>
